<svg xmlns="http://www.w3.org/2000/svg" xmlns:xlink="http://www.w3.org/1999/xlink" version="1.1" x="0px" y="0px" viewBox="0 0 100 125" style="enable-background:new 0 0 100 100;" xml:space="preserve"><path d="M73,37h-2.2c-0.7-9.9-8.3-17.9-18-19.2l0.4-6.7L69.5,8c0.8-0.2,1.3-0.9,1.2-1.8C70.6,5.4,69.8,4.9,69,5L51.6,8.3  c-0.7,0.1-1.2,0.7-1.2,1.4l-0.5,7.9c-11,0.1-20,8.6-20.7,19.4H27c-0.8,0-1.5,0.7-1.5,1.5v5.4c0,0.8,0.7,1.5,1.5,1.5h1.8L33.2,89  c0.4,3.4,3.2,6,6.6,6h20.3c3.4,0,6.3-2.6,6.6-6l4.5-43.7H73c0.8,0,1.5-0.7,1.5-1.5v-5.4C74.5,37.7,73.8,37,73,37z M52.7,20.8  C60.8,22,67.2,28.7,67.9,37H51.7L52.7,20.8z M49.7,20.6l-1,16.4H32.1C32.9,27.9,40.5,20.7,49.7,20.6z M31.7,45.4h16.4l-1.6,26.6  c-0.2,0-0.3,0.1-0.5,0.1c-0.8,0.3-1.4,0.8-2.1,1.3c-0.9,0.6-1.6,0.7-2.7,0.2c-1.6-0.7-3.3-2.2-5.3-1.7c-0.5,0.1-1.1,0.4-1.5,0.7  L31.7,45.4z M63.8,88.7c-0.1,1.2-0.8,2.2-1.8,2.8c0.5-0.5,0.9-1.1,0.9-1.9c0-1.4-1.1-2.5-2.5-2.5c-1.4,0-2.5,1.1-2.5,2.5  c0,1.1,0.8,2.1,1.8,2.4H54c0.6-0.5,1-1.2,1-2c0-1.4-1.1-2.5-2.5-2.5S50,88.7,50,90c0,0.8,0.4,1.5,1,2H40c1-0.3,1.8-1.3,1.8-2.4  c0-1.4-1.1-2.5-2.5-2.5c-1.4,0-2.5,1.1-2.5,2.5c0,0.4,0.1,0.8,0.3,1.1c-0.5-0.5-0.8-1.2-0.9-2l-1.3-12.7c0.1-0.1,0.2-0.1,0.3-0.2  c0.9-0.9,1.5-1.3,2.7-0.7c1.8,0.8,3.5,2.1,5.7,1.7c0.9-0.2,1.6-0.6,2.3-1.1c0.5-0.4,1.1-1,1.8-0.9c0.7,0.1,1.3,0.6,1.9,1  c0.6,0.4,1.3,0.8,2,1c1.5,0.4,2.9-0.2,4.2-1.1c0.5-0.4,1.1-1,1.7-1.1c0.6-0.1,1.1,0.3,1.5,0.7c1.2,1,2.5,1.9,4.2,1.6  c0.8-0.2,1.4-0.6,2.1-1.1L63.8,88.7z M65.5,72.1c-0.5,0.2-1,0.5-1.5,0.8c-0.5,0.3-1.1,1-1.7,1c-0.6,0-1.2-0.6-1.6-1  c-0.7-0.6-1.4-1.1-2.2-1.3c-1.6-0.4-2.9,0.4-4.1,1.3c-0.5,0.4-1.2,1-1.9,1c-0.6,0-1.3-0.6-1.8-0.9c-0.4-0.2-0.8-0.5-1.2-0.7l1.7-27  h17.1L65.5,72.1z M71.5,42.4h-43V40H50c0,0,0,0,0,0c0,0,0.1,0,0.1,0c0,0,0,0,0.1,0h21.4V42.4z M48,86.3c0,1.4-1.1,2.5-2.5,2.5  S43,87.7,43,86.3c0-1.4,1.1-2.5,2.5-2.5S48,85,48,86.3z M42.5,81.8c0,1.4-1.1,2.5-2.5,2.5s-2.5-1.1-2.5-2.5c0-1.4,1.1-2.5,2.5-2.5  S42.5,80.4,42.5,81.8z M52.5,81.3c0,1.4-1.1,2.5-2.5,2.5s-2.5-1.1-2.5-2.5c0-1.4,1.1-2.5,2.5-2.5S52.5,80,52.5,81.3z M59.4,84.6  c0,1.4-1.1,2.5-2.5,2.5s-2.5-1.1-2.5-2.5c0-1.4,1.1-2.5,2.5-2.5S59.4,83.2,59.4,84.6z M63.6,79.6c0,1.4-1.1,2.5-2.5,2.5  s-2.5-1.1-2.5-2.5c0-1.4,1.1-2.5,2.5-2.5S63.6,78.2,63.6,79.6z"/><text x="0" y="115" fill="#000000" font-size="5px" font-weight="bold" font-family="'Helvetica Neue', Helvetica, Arial-Unicode, Arial, Sans-serif">Created by Cheng</text><text x="0" y="120" fill="#000000" font-size="5px" font-weight="bold" font-family="'Helvetica Neue', Helvetica, Arial-Unicode, Arial, Sans-serif">from the Noun Project</text></svg>